<svg xmlns="http://www.w3.org/2000/svg" viewBox="0 0 96 96" role="img" aria-label="SmartBus">
  <!-- Simplified bus mark for favicon -->
  <path
    d="M18 28c0-6 4.9-10.9 10.9-10.9h37.8c12 0 21.7 9.7 21.7 21.7v23.1c0 6-4.9 10.9-10.9 10.9H28.9C22.9 72.8 18 67.9 18 61.9V28Z"
    fill="#0B67D0"
    stroke="#084C9A"
    stroke-width="3"
    stroke-linejoin="round"
  />

  <g opacity="0.95">
    <rect x="26" y="24" width="16" height="11" rx="3" fill="#EAF3FF"/>
    <rect x="44" y="24" width="16" height="11" rx="3" fill="#EAF3FF"/>
    <rect x="62" y="24" width="16" height="11" rx="3" fill="#EAF3FF"/>
  </g>

  <g stroke="#EAF3FF" stroke-width="2.8" stroke-linecap="round" stroke-linejoin="round" opacity="0.95">
    <circle cx="30" cy="49" r="3.2" fill="#EAF3FF"/>
    <circle cx="22" cy="39" r="3.2" fill="#EAF3FF"/>
    <circle cx="22" cy="59" r="3.2" fill="#EAF3FF"/>
    <line x1="30" y1="49" x2="22" y2="39"/>
    <line x1="30" y1="49" x2="22" y2="59"/>
  </g>

  <g fill="none" stroke="#28A745" stroke-linecap="round" opacity="0.95">
    <path d="M74 44c-4-4-10.4-4-14.4 0" stroke-width="3.4"/>
    <path d="M71.7 49c-2.7-2.7-7.1-2.7-9.8 0" stroke-width="3.4"/>
    <circle cx="66.9" cy="54.2" r="2.4" fill="#28A745" stroke="none"/>
  </g>

  <circle cx="34" cy="74" r="7.2" fill="#084C9A"/>
  <circle cx="34" cy="74" r="3.6" fill="#EAF3FF"/>
  <circle cx="70" cy="74" r="7.2" fill="#084C9A"/>
  <circle cx="70" cy="74" r="3.6" fill="#EAF3FF"/>
</svg>
